<?xml version="1.0" encoding="utf-8"?>
<!-- Generator: Adobe Illustrator 24.1.1, SVG Export Plug-In . SVG Version: 6.00 Build 0)  -->
<svg version="1.1" id="Capa_1" xmlns="http://www.w3.org/2000/svg" xmlns:xlink="http://www.w3.org/1999/xlink" x="0px" y="0px"
	 viewBox="0 0 130.3 39.7" style="enable-background:new 0 0 130.3 39.7;" xml:space="preserve">
<g id="Capa_1_1_">
</g>
<g id="Capa_2_1_">
	<g>
		<path d="M33.6,29.7l2-14.8h3.1l1.6-4.2H26.8l-1.5,3.9l7.5,0.3l-2.2,0.9l-1.4,17.1C29.3,32.9,31.3,31,33.6,29.7z"/>
		<path d="M38.5,27.3l1.8-15h3.6l-0.7,6.2l1.7,0.1l0.7-7.9h3.5l-1.6,13.9c0,0-0.3,0-3.1,0.8l0.3-5.3h-1.7l-1,6.1
			C42.1,26,39.9,26.7,38.5,27.3z"/>
		<path d="M48.5,24.4l1-12l2.9,0L52,19c0,0,2.8-2.7,2.1-4.4c-1-2.4-2.7-3.1-2.7-3.1l2.9-1.9c0,0,5,4,3.1,6.8c-1.9,2.8-2.6,2.9-1.8,4
			c0.7,1.2,1.5,2.8,1.5,2.8L54,23.5l-2.2-3.2l-0.4,3.6C51.4,23.9,49.5,24.2,48.5,24.4z"/>
		<path d="M67.1,22.9l-0.8-12.2h-3.5l0.1,1.4l-3.3,0.2l-2.3,10.9l3.2-0.2l0.8-3.1l2.6,0.1v2.9L67.1,22.9z M61.5,18.5l1.4-5.3l1,5.8
			L61.5,18.5z"/>
		<path d="M67.4,22.9c0,0,2,0,3.4,0.2c0,0,3.6-3.8,1.9-5.7c-1.7-1.9-2.4-2.5-2.2-3.5c0.2-0.9,0.9-1.6,0.9-1.6l-0.2,1.8l1.9,0.1
			l1.2-3.5h-4.7c0,0-3.3,2.5-2.5,4c0.8,1.5,3,3.5,2.5,4.5C69.1,20.2,68.5,21.6,67.4,22.9z"/>
		<path d="M74.1,12.3l-1.1,11c0,0,2,0.1,2.9,0.3l0.6-3.7l1.5,0.1l-0.2,3.9c0,0,2.5,0.3,3.1,0.6l1.7-13.7H79l-0.6,7.8l-1.6,0l0.7-6.4
			L74.1,12.3z"/>
		<path d="M82.3,24.7l1-10.5l1.1-0.6h-1.5l0.9-2.9h7.1l-0.3,3h-3.5l-0.4,3.2h3.4l-0.2,2.7h-3.3l-0.7,3l3.5,0.9L89,26.7
			C89,26.7,84.5,25.2,82.3,24.7z"/>
		<path d="M91.3,12.3l-1.4,14.8c0,0,2.2,0.9,2.9,1.4l0.7-3.9l1.6,5.1c0,0,3.3,2.1,3.9,3.2l-1.4-9.2l4.2-4.8c0,0,1.4-2.3,0.2-4.2
			c-1.2-1.9-4.7-5.5-4.7-5.5l-3.2,2.1c0,0,4.3,3.9,3.7,5.6c-0.6,1.8-2.6,4.2-3.9,5.6l1-10L91.3,12.3z"/>
	</g>
</g>
<g id="Capa_3">
</g>
</svg>
