<?xml version="1.0" encoding="utf-8"?>
<!-- Generator: Adobe Illustrator 24.1.1, SVG Export Plug-In . SVG Version: 6.00 Build 0)  -->
<svg version="1.1" id="Capa_1" xmlns="http://www.w3.org/2000/svg" xmlns:xlink="http://www.w3.org/1999/xlink" x="0px" y="0px"
	 viewBox="0 0 11 12" style="enable-background:new 0 0 11 12;" xml:space="preserve">
<style type="text/css">
	.st0{fill:#FFFFFF;}
</style>
<path class="st0" d="M5.5,0.5c-2.3,0-4.4-0.2-5.2,1.9C-0.1,3.3,0,4.4,0,6c0,1.4-0.1,2.7,0.3,3.6c0.8,2.1,3,1.9,5.2,1.9
	c2.2,0,4.4,0.2,5.2-1.9C11,8.7,11,7.6,11,6c0-2.1,0.1-3.5-0.9-4.6C9,0.4,7.6,0.5,5.5,0.5L5.5,0.5z M5,1.5c4.7,0,5.3-0.5,5,6.7
	c-0.1,2.6-2.1,2.3-4.5,2.3C1.1,10.5,1,10.4,1,6C1,1.6,1.3,1.5,5,1.5L5,1.5z M8.4,2.4c-0.4,0-0.7,0.3-0.7,0.7s0.3,0.7,0.7,0.7
	s0.7-0.3,0.7-0.7C9.1,2.7,8.8,2.4,8.4,2.4L8.4,2.4z M5.5,3.2C3.9,3.2,2.7,4.4,2.7,6s1.3,2.8,2.8,2.8S8.3,7.6,8.3,6S7,3.2,5.5,3.2
	L5.5,3.2z M5.5,4.2c2.4,0,2.4,3.7,0,3.7S3.1,4.2,5.5,4.2z"/>
</svg>
